<svg aria-hidden="true" style="width:0;height:0;position:absolute;overflow:hidden" xmlns="http://www.w3.org/2000/svg"><defs><symbol id="icon-favorite-heart" viewBox="0 0 32 32"><path stroke-linejoin="round" stroke-linecap="round" stroke-width="2" d="M9.334 4c-3.682 0-6.668 2.954-6.668 6.6 0 2.942 1.168 9.926 12.652 16.986a1.31 1.31 0 0 0 1.37-.003l-.006.003c11.484-7.06 12.652-14.044 12.652-16.986 0-3.646-2.986-6.6-6.668-6.6C18.986 4 16 8 16 8s-2.986-4-6.666-4z"/></symbol><symbol id="icon-read-check" viewBox="0 0 32 32"><path d="M28.779 6.389a1.062 1.062 0 0 0-.732.323L11.734 23.025l-6.713-6.713a1.067 1.067 0 1 0-1.508 1.508l.001.001 7.467 7.467c.193.193.459.312.754.312s.561-.119.754-.312L29.556 8.221a1.067 1.067 0 0 0-.744-1.832h-.033.002z"/></symbol><symbol id="icon-arrow-left" viewBox="0 0 32 32"><path d="m14.437 16 6.6 6.6-1.885 1.885L10.667 16l8.485-8.485L21.037 9.4l-6.6 6.6z"/></symbol><symbol id="icon-up" viewBox="0 0 32 32"><path fill="#4440f6" d="M3.76 25.143 0 21.664 16 6.858l16 14.806-3.76 3.479L16 13.841 3.76 25.143z" style="fill:var(--color1,#4440f6)"/><symbol id="icon-down" viewBox="0 0 32 32"><path fill="#" d="M3.76 9.143 0 12.622l16 14.806 16-14.806-3.76-3.479L16 20.445 3.76 9.143z"/><symbol id="icon-Frame" viewBox="0 0 32 32"><path d="M22.667 4H28a1.335 1.335 0 0 1 1.334 1.334v21.333A1.335 1.335 0 0 1 28 28.001H4a1.33 1.33 0 0 1-1.333-1.334V5.334A1.333 1.333 0 0 1 4 4h5.333V1.333H12V4h8V1.333h2.667V4zm4 10.667H5.334v10.667h21.333V14.667zm-6.667-8h-8v2.667H9.333V6.667h-4V12h21.333V6.667h-4v2.667h-2.667V6.667zM8 17.333h2.667V20H8v-2.667zm6.667 0h2.667V20h-2.667v-2.667zm6.666 0H24V20h-2.667v-2.667z"/></symbol></symbol></symbol></defs></svg>