<svg aria-hidden="true" style="width:0;height:0;position:absolute;overflow:hidden" xmlns="http://www.w3.org/2000/svg"><defs><symbol id="icon-favorite-heart" viewBox="0 0 32 32"><path stroke-linejoin="round" stroke-linecap="round" stroke-width="2" d="M9.334 4c-3.682 0-6.668 2.954-6.668 6.6 0 2.942 1.168 9.926 12.652 16.986a1.31 1.31 0 0 0 1.37-.003l-.006.003c11.484-7.06 12.652-14.044 12.652-16.986 0-3.646-2.986-6.6-6.668-6.6C18.986 4 16 8 16 8s-2.986-4-6.666-4z"/></symbol><symbol id="icon-read-check" viewBox="0 0 32 32"><path d="M28.779 6.389a1.062 1.062 0 0 0-.732.323L11.734 23.025l-6.713-6.713a1.067 1.067 0 1 0-1.508 1.508l.001.001 7.467 7.467c.193.193.459.312.754.312s.561-.119.754-.312L29.556 8.221a1.067 1.067 0 0 0-.744-1.832h-.033.002z"/></symbol><symbol id="icon-arrow-left" viewBox="0 0 32 32"><path d="m14.437 16 6.6 6.6-1.885 1.885L10.667 16l8.485-8.485L21.037 9.4l-6.6 6.6z"/></symbol><symbol id="icon-up" viewBox="0 0 32 32"><path fill="#4440f6" d="M3.76 25.143 0 21.664 16 6.858l16 14.806-3.76 3.479L16 13.841 3.76 25.143z" style="fill:var(--color1,#4440f6)"/><symbol id="icon-down" viewBox="0 0 32 32"><path fill="#" d="M3.76 9.143 0 12.622l16 14.806 16-14.806-3.76-3.479L16 20.445 3.76 9.143z"/><symbol id="icon-Frame" viewBox="0 0 32 32"><path d="M22.667 4H28a1.335 1.335 0 0 1 1.334 1.334v21.333A1.335 1.335 0 0 1 28 28.001H4a1.33 1.33 0 0 1-1.333-1.334V5.334A1.333 1.333 0 0 1 4 4h5.333V1.333H12V4h8V1.333h2.667V4zm4 10.667H5.334v10.667h21.333V14.667zm-6.667-8h-8v2.667H9.333V6.667h-4V12h21.333V6.667h-4v2.667h-2.667V6.667zM8 17.333h2.667V20H8v-2.667zm6.667 0h2.667V20h-2.667v-2.667zm6.666 0H24V20h-2.667v-2.667z"/></symbol><symbol id="icon-pen" viewBox="0 0 32 32"><path d="M31.813 1.62 30.401.208a.637.637 0 0 0-.902 0L26.938 2.77l-.448-.448a.638.638 0 0 0-.902 0l-1.347 1.346-.876-.876a.637.637 0 0 0-.902 0l-7.669 7.669a.638.638 0 0 0 .902.902l5.806-5.806.425.425L3.78 24.129a.662.662 0 0 0-.102.133l-.002.003h-.001l-3.124 5.52a.633.633 0 0 0 .044.696l-.001-.002-.41.41a.638.638 0 0 0 .902.902l.406-.406a.633.633 0 0 0 .744.081l-.003.002 5.521-3.125a.682.682 0 0 0 .137-.103L29.698 6.432a.638.638 0 0 0 0-.902l-.448-.448 2.561-2.562a.637.637 0 0 0 0-.901zM2.029 30.12l-.127-.128 2.472-4.369 2.024 2.024-4.369 2.472zm5.413-3.232L5.134 24.58 22.831 6.883l2.308 2.308L7.442 26.888zM26.039 8.29l-3.634-3.635.511-.511 3.634 3.635-.511.511zm1.413-1.412L25.144 4.57l.896-.896 2.308 2.308-.896.896zm.898-2.696-.511-.511L29.95 1.56l.511.511-2.111 2.111z"/><path d="M16.897 15.74a.638.638 0 0 0-.902 0l-.287.287a.638.638 0 0 0 .45 1.089h.001a.635.635 0 0 0 .451-.187l.287-.287a.638.638 0 0 0 0-.902zm-1.88 1.881a.638.638 0 0 0-.902 0l-7.076 7.076a.638.638 0 0 0 .902.902l7.076-7.076a.638.638 0 0 0 0-.902z"/></symbol><symbol id="icon-user" viewBox="0 0 32 32"><path d="M16.008 4h.008a4.36 4.36 0 0 1 4.36 4.36v2.184c1.294 0 .756 1.864 0 2.91a8.67 8.67 0 0 1-.668.726l-.002.002a16.271 16.271 0 0 1-.665 1.586l.044-.102.416 2.152h.874l5.5 3.054a4.3 4.3 0 0 1 2.124 3.707v3.422h-24v-3.359c0-1.578.845-2.958 2.106-3.714l.02-.011 5.516-3.1h.874l.42-2.136c-.188-.38-.399-.874-.586-1.38l-.038-.118a8.667 8.667 0 0 1-.658-.713l-.012-.015c-.756-1.046-1.294-2.908 0-2.908V8.361a4.36 4.36 0 0 1 4.36-4.36h.006z"/></symbol><symbol id="icon-close-modal" viewBox="0 0 32 32"><path d="M25.609 8.276a1.333 1.333 0 0 0-1.886-1.884l-7.724 7.724-7.724-7.724a1.333 1.333 0 0 0-1.884 1.886l7.724 7.724-7.724 7.724a1.333 1.333 0 1 0 1.885 1.885L16 17.887l7.724 7.724a1.333 1.333 0 0 0 1.884-1.886l-7.724-7.724 7.724-7.724z"/></symbol><symbol id="icon-enter" viewBox="0 0 20 20"><path d="M20 10c0 5.523-4.477 10-10 10S0 15.523 0 10 4.477 0 10 0s10 4.477 10 10zm-2 0a8 8 0 0 0-16 0 8 8 0 0 0 16 0zm-8 2H5V8h5V5l5 5-5 5v-3z"/></symbol></symbol></symbol></defs></svg>