<svg aria-hidden="true" style="position: absolute; width: 0; height: 0; overflow: hidden;" version="1.1" xmlns="http://www.w3.org/2000/svg" xmlns:xlink="http://www.w3.org/1999/xlink">
<defs>
<symbol id="icon-favorite-heart" viewBox="0 0 32 32">
<path stroke-linejoin="round" stroke-linecap="round" stroke-miterlimit="4" stroke-width="2" d="M9.334 4c-3.682 0-6.668 2.954-6.668 6.6 0 2.942 1.168 9.926 12.652 16.986 0.194 0.12 0.43 0.191 0.682 0.191s0.488-0.071 0.688-0.194l-0.006 0.003c11.484-7.060 12.652-14.044 12.652-16.986 0-3.646-2.986-6.6-6.668-6.6-3.68 0-6.666 4-6.666 4s-2.986-4-6.666-4z"></path>
</symbol>
<symbol id="icon-read-check" viewBox="0 0 32 32">
<path d="M28.779 6.389c-0.288 0.009-0.546 0.131-0.732 0.323l-16.313 16.313-6.713-6.713c-0.195-0.209-0.473-0.339-0.78-0.339-0.589 0-1.067 0.478-1.067 1.067 0 0.308 0.13 0.585 0.339 0.78l0.001 0.001 7.467 7.467c0.193 0.193 0.459 0.312 0.754 0.312s0.561-0.119 0.754-0.312v0l17.067-17.067c0.199-0.194 0.323-0.465 0.323-0.765 0-0.589-0.478-1.067-1.067-1.067-0.011 0-0.022 0-0.033 0l0.002-0z"></path>
</symbol>
<symbol id="icon-arrow-left" viewBox="0 0 32 32">
<path d="M14.437 16l6.6 6.6-1.885 1.885-8.485-8.485 8.485-8.485 1.885 1.885-6.6 6.6z"></path>
</symbol>
<symbol id="icon-up" viewBox="0 0 32 32"><path fill="#4440f6" d="M3.76 25.143 0 21.664 16 6.858l16 14.806-3.76 3.479L16 13.841 3.76 25.143z" style="fill:var(--color1, #4440f6)"/>  
<symbol id="icon-down" viewBox="0 0 32 32"><path fill="#" d="M3.76 9.143 0 12.622l16 14.806 16-14.806-3.76-3.479L16 20.445 3.76 9.143z"/>
<symbol id="icon-Frame" viewBox="0 0 32 32"><path  d="M22.667 4H28a1.335 1.335 0 0 1 1.334 1.334v21.333A1.335 1.335 0 0 1 28 28.001H4a1.33 1.33 0 0 1-1.333-1.334V5.334A1.333 1.333 0 0 1 4 4h5.333V1.333H12V4h8V1.333h2.667V4zm4 10.667H5.334v10.667h21.333V14.667zm-6.667-8h-8v2.667H9.333V6.667h-4V12h21.333V6.667h-4v2.667h-2.667V6.667zM8 17.333h2.667V20H8v-2.667zm6.667 0h2.667V20h-2.667v-2.667zm6.666 0H24V20h-2.667v-2.667z"/></symbol>
<symbol id="icon-pen" viewBox="0 0 32 32">
<path d="M31.813 1.62l-1.412-1.412c-0.115-0.115-0.275-0.187-0.451-0.187s-0.335 0.071-0.451 0.187l-2.561 2.562-0.448-0.448c-0.249-0.249-0.653-0.249-0.902 0l-1.347 1.346-0.876-0.876c-0.115-0.115-0.275-0.187-0.451-0.187s-0.335 0.071-0.451 0.187l-7.669 7.669c-0.249 0.249-0.249 0.653 0 0.902 0.124 0.124 0.288 0.187 0.451 0.187s0.326-0.062 0.451-0.187l5.806-5.806 0.425 0.425-18.147 18.147c-0.039 0.040-0.074 0.084-0.102 0.133l-0.002 0.003-0.001 0-3.124 5.52c-0.052 0.090-0.083 0.198-0.083 0.314 0 0.143 0.047 0.276 0.127 0.382l-0.001-0.002-0.41 0.41c-0.249 0.249-0.249 0.653 0 0.902 0.124 0.125 0.288 0.187 0.451 0.187s0.326-0.062 0.451-0.187l0.406-0.406c0.112 0.102 0.262 0.165 0.427 0.165 0.115 0 0.223-0.031 0.317-0.084l-0.003 0.002 5.521-3.125c0.052-0.030 0.097-0.064 0.137-0.103l21.807-21.808c0.249-0.249 0.249-0.653 0-0.902l-0.448-0.448 2.561-2.562c0.249-0.249 0.249-0.653-0-0.901zM2.029 30.12l-0.127-0.128 2.472-4.369 2.024 2.024-4.369 2.472zM7.442 26.888l-2.308-2.308 17.697-17.697 2.308 2.308-17.697 17.697zM26.039 8.29l-3.634-3.635 0.511-0.511 3.634 3.635-0.511 0.511zM27.452 6.878l-2.308-2.308 0.896-0.896 2.308 2.308-0.896 0.896zM28.35 4.182l-0.511-0.511 2.111-2.111 0.511 0.511-2.111 2.111z"></path>
<path d="M16.897 15.74c-0.249-0.249-0.653-0.249-0.902 0l-0.287 0.287c-0.249 0.249-0.249 0.653 0 0.902 0.115 0.115 0.274 0.187 0.45 0.187 0 0 0.001 0 0.001 0h-0c0.163 0 0.326-0.062 0.451-0.187l0.287-0.287c0.249-0.249 0.249-0.653 0-0.902zM15.017 17.621c-0.249-0.249-0.653-0.249-0.902 0l-7.076 7.076c-0.249 0.249-0.249 0.653 0 0.902 0.125 0.125 0.288 0.187 0.451 0.187s0.326-0.062 0.451-0.187l7.076-7.076c0.249-0.249 0.249-0.653 0-0.902z"></path>
</symbol>
<symbol id="icon-user" viewBox="0 0 32 32">
<path d="M16.008 4c0.002 0 0.005 0 0.008 0 2.408 0 4.36 1.952 4.36 4.36 0 0.001 0 0.003 0 0.004v-0 2.18c1.294 0 0.756 1.864 0 2.91-0.217 0.264-0.436 0.501-0.668 0.726l-0.002 0.002c-0.225 0.619-0.434 1.109-0.665 1.586l0.044-0.102 0.416 2.152h0.874l5.5 3.054c1.28 0.76 2.124 2.134 2.124 3.707 0 0.001 0 0.002 0 0.004v-0 3.418h-24v-3.346c0-0.004-0-0.009-0-0.013 0-1.578 0.845-2.958 2.106-3.714l0.020-0.011 5.516-3.1h0.874l0.42-2.136c-0.188-0.38-0.399-0.874-0.586-1.38l-0.038-0.118c-0.234-0.227-0.453-0.464-0.658-0.713l-0.012-0.015c-0.756-1.046-1.294-2.908 0-2.908v-2.18c0-0.002 0-0.004 0-0.006 0-2.408 1.952-4.36 4.36-4.36 0.002 0 0.004 0 0.006 0h-0z"></path>
</symbol>
<symbol id="icon-close-modal" viewBox="0 0 32 32">
<path d="M25.609 8.276c0.232-0.24 0.374-0.566 0.374-0.926 0-0.736-0.597-1.333-1.333-1.333-0.36 0-0.687 0.143-0.927 0.375l-7.724 7.724-7.724-7.724c-0.24-0.232-0.566-0.374-0.926-0.374-0.736 0-1.333 0.597-1.333 1.333 0 0.36 0.143 0.687 0.375 0.927l7.724 7.724-7.724 7.724c-0.251 0.243-0.407 0.583-0.407 0.959 0 0.736 0.597 1.333 1.333 1.333 0.376 0 0.716-0.156 0.959-0.407l7.724-7.724 7.724 7.724c0.24 0.232 0.566 0.374 0.926 0.374 0.736 0 1.333-0.597 1.333-1.333 0-0.36-0.143-0.687-0.375-0.927l-7.724-7.724 7.724-7.724z"></path>
</symbol>
<symbol id="icon-enter" viewBox="0 0 20 20">
<path d="M20 10c0 5.523-4.477 10-10 10s-10-4.477-10-10v0c0-5.523 4.477-10 10-10s10 4.477 10 10v0zM18 10c0-4.418-3.582-8-8-8s-8 3.582-8 8v0c0 4.418 3.582 8 8 8s8-3.582 8-8v0zM10 12h-5v-4h5v-3l5 5-5 5v-3z"></path>
</symbol>
</defs>
</svg>
